<svg width="2975" height="880" viewBox="0 0 2975 880" fill="none" xmlns="http://www.w3.org/2000/svg">
    <path d="M684 545C684 604.674 660.295 661.903 618.099 704.099C575.903 746.295 518.674 770 459 770C399.326 770 342.097 746.295 299.901 704.099C257.705 661.903 234 604.674 234 545L350.567 545C350.567 573.758 361.991 601.338 382.327 621.674C402.662 642.009 430.242 653.433 459 653.433C487.758 653.433 515.338 642.009 535.673 621.674C556.009 601.338 567.433 573.758 567.433 545H684Z" fill="#434AFF" fill-opacity="0.1"/>
    <rect x="234" y="142" width="117" height="403" fill="#434AFF" fill-opacity="0.1"/>
    <rect x="567" y="142" width="117" height="403" fill="#434AFF" fill-opacity="0.1"/>
    <path d="M1767 545C1767 604.674 1743.29 661.903 1701.1 704.099C1658.9 746.295 1601.67 770 1542 770C1482.33 770 1425.1 746.295 1382.9 704.099C1340.71 661.903 1317 604.674 1317 545L1433.57 545C1433.57 573.758 1444.99 601.338 1465.33 621.674C1485.66 642.009 1513.24 653.433 1542 653.433C1570.76 653.433 1598.34 642.009 1618.67 621.674C1639.01 601.338 1650.43 573.758 1650.43 545H1767Z" fill="#434AFF" fill-opacity="0.1"/>
    <path d="M1317 367C1317 307.326 1340.71 250.097 1382.9 207.901C1425.1 165.705 1482.33 142 1542 142C1601.67 142 1658.9 165.705 1701.1 207.901C1743.29 250.097 1767 307.326 1767 367L1650.43 367C1650.43 338.242 1639.01 310.662 1618.67 290.327C1598.34 269.992 1570.76 258.567 1542 258.567C1513.24 258.567 1485.66 269.992 1465.33 290.327C1444.99 310.662 1433.57 338.242 1433.57 367L1317 367Z" fill="#434AFF" fill-opacity="0.1"/>
    <rect x="1317" y="367" width="117" height="178" fill="#434AFF" fill-opacity="0.1"/>
    <rect x="1650" y="367" width="117" height="178" fill="#434AFF" fill-opacity="0.1"/>
    <rect x="808" y="142" width="117" height="628" fill="#434AFF" fill-opacity="0.1"/>
    <rect x="1193" y="653" width="117" height="385" transform="rotate(90 1193 653)" fill="#434AFF" fill-opacity="0.1"/>
    <rect x="1891" y="142" width="117" height="628" fill="#434AFF" fill-opacity="0.1"/>
    <rect x="2276" y="653" width="117" height="385" transform="rotate(90 2276 653)" fill="#434AFF" fill-opacity="0.1"/>
    <rect x="2400" y="142" width="117" height="628" fill="#434AFF" fill-opacity="0.1"/>
    <rect x="2785" y="653" width="117" height="385" transform="rotate(90 2785 653)" fill="#434AFF" fill-opacity="0.1"/>
    <rect x="2785" y="142" width="117" height="385" transform="rotate(90 2785 142)" fill="#434AFF" fill-opacity="0.1"/>
    <rect x="2733" y="397" width="117" height="333" transform="rotate(90 2733 397)" fill="#434AFF" fill-opacity="0.1"/>
    <path d="M640 512C640 571.674 616.295 628.903 574.099 671.099C531.903 713.295 474.674 737 415 737C355.326 737 298.097 713.295 255.901 671.099C213.705 628.903 190 571.674 190 512L306.567 512C306.567 540.758 317.991 568.338 338.327 588.674C358.662 609.009 386.242 620.433 415 620.433C443.758 620.433 471.338 609.009 491.673 588.674C512.009 568.338 523.433 540.758 523.433 512H640Z" fill="#D73030"/>
    <rect x="190" y="109" width="117" height="403" fill="#D73030"/>
    <rect x="523" y="109" width="117" height="403" fill="#D73030"/>
    <rect x="764" y="109" width="117" height="628" fill="#434AFF"/>
    <rect x="1149" y="620" width="117" height="385" transform="rotate(90 1149 620)" fill="#434AFF"/>
    <path d="M1723 512C1723 571.674 1699.29 628.903 1657.1 671.099C1614.9 713.295 1557.67 737 1498 737C1438.33 737 1381.1 713.295 1338.9 671.099C1296.71 628.903 1273 571.674 1273 512L1389.57 512C1389.57 540.758 1400.99 568.338 1421.33 588.674C1441.66 609.009 1469.24 620.433 1498 620.433C1526.76 620.433 1554.34 609.009 1574.67 588.674C1595.01 568.338 1606.43 540.758 1606.43 512H1723Z" fill="#F02D8B"/>
    <path d="M1273 334C1273 274.326 1296.71 217.097 1338.9 174.901C1381.1 132.705 1438.33 109 1498 109C1557.67 109 1614.9 132.705 1657.1 174.901C1699.29 217.097 1723 274.326 1723 334L1606.43 334C1606.43 305.242 1595.01 277.662 1574.67 257.327C1554.34 236.991 1526.76 225.567 1498 225.567C1469.24 225.567 1441.66 236.991 1421.33 257.327C1400.99 277.662 1389.57 305.242 1389.57 334L1273 334Z" fill="#F02D8B"/>
    <rect x="1273" y="334" width="117" height="178" fill="#F02D8B"/>
    <rect x="1606" y="334" width="117" height="178" fill="#F02D8B"/>
    <rect x="1847" y="109" width="117" height="628" fill="#F2751B"/>
    <rect x="2232" y="620" width="117" height="385" transform="rotate(90 2232 620)" fill="#F2751B"/>
    <rect x="2356" y="109" width="117" height="628" fill="#66EF5A"/>
    <rect x="2741" y="620" width="117" height="385" transform="rotate(90 2741 620)" fill="#66EF5A"/>
    <rect x="2741" y="109" width="117" height="385" transform="rotate(90 2741 109)" fill="#66EF5A"/>
    <rect x="2689" y="364" width="117" height="333" transform="rotate(90 2689 364)" fill="#66EF5A"/>
</svg>